<svg xmlns="http://www.w3.org/2000/svg" width="512" height="512" viewBox="0 0 512 512">
<g>
<path d="M 328.00 395.39 C329.38,395.64 339.27,395.70 350.00,395.51 C370.79,395.14 379.65,393.79 395.69,388.52 C412.87,382.89 434.98,370.16 448.58,358.10 L 452.42 354.69 L 449.98 353.10 C448.64,352.22 446.13,350.26 444.39,348.75 C442.66,347.24 440.99,346.00 440.70,346.00 C440.40,346.00 436.33,348.88 431.66,352.41 C413.68,365.97 397.23,373.53 374.50,378.69 C363.24,381.24 331.06,381.27 319.34,378.74 C292.56,372.95 269.03,360.52 249.44,341.78 C229.47,322.70 216.90,301.20 209.80,274.00 C207.21,264.08 206.73,260.16 206.30,245.50 C205.93,232.82 206.20,226.08 207.36,218.99 C217.05,160.00 260.60,114.72 319.50,102.40 C333.41,99.49 361.94,99.70 375.88,102.82 C399.30,108.07 418.83,117.34 434.86,130.83 C438.58,133.96 440.61,135.06 441.48,134.42 C448.65,129.17 451.87,126.34 451.63,125.50 C451.48,124.95 446.57,120.87 440.72,116.44 C420.12,100.81 396.61,90.78 371.50,86.89 C365.07,85.89 362.96,85.11 360.75,82.90 C357.35,79.50 357.26,76.65 360.45,73.45 C363.47,70.43 365.73,70.39 379.58,73.06 C411.19,79.16 440.22,93.96 463.00,115.58 L 469.50 121.75 L 476.71 122.24 C492.28,123.30 504.61,133.33 510.20,149.49 C511.87,154.33 511.94,151.82 511.97,77.25 L 512.00 0.00 L 512.00 512.00 L 511.97 419.25 C511.94,329.46 511.88,326.66 510.18,331.59 C504.70,347.43 491.78,357.69 474.92,359.58 C468.79,360.27 468.16,360.61 461.00,367.01 C437.31,388.19 411.58,401.23 379.66,408.23 C370.84,410.16 366.51,410.46 346.88,410.48 L 324.26 410.50 L 321.73 414.00 C311.26,428.50 294.28,444.27 276.80,455.72 C253.34,471.11 224.15,480.50 193.50,482.54 C183.08,483.23 182.29,483.44 178.50,486.52 C168.97,494.25 156.53,497.94 146.34,496.05 C133.14,493.61 121.55,484.93 115.73,473.11 C112.71,466.97 112.50,465.87 112.50,456.02 C112.50,446.28 112.73,445.01 115.67,438.80 C122.23,424.96 134.47,416.93 150.15,416.18 C164.33,415.50 176.14,420.72 183.71,431.00 C185.54,433.48 187.48,436.05 188.03,436.73 C189.06,437.98 191.23,437.88 205.08,435.95 C221.03,433.73 239.62,426.43 254.45,416.56 C262.22,411.39 277.00,398.63 277.00,397.09 C277.00,396.69 274.22,395.05 270.82,393.43 C261.94,389.22 242.77,376.39 233.79,368.65 C207.20,345.74 187.00,310.89 178.94,274.00 C177.48,267.35 176.69,259.19 176.30,246.82 C175.65,226.49 176.76,215.18 181.09,198.00 C182.69,191.68 184.00,186.34 184.00,186.15 C184.00,185.95 180.29,186.10 175.75,186.48 C144.96,189.05 117.11,201.85 95.84,223.20 C80.51,238.60 68.62,259.21 63.55,279.21 C61.41,287.63 58.37,307.89 59.17,308.38 C68.26,313.87 73.51,319.58 77.72,328.57 C80.19,333.84 80.50,335.62 80.46,344.50 C80.42,358.19 78.11,363.96 69.03,373.03 C59.90,382.17 54.12,384.49 40.50,384.50 C31.72,384.50 29.80,384.17 24.75,381.80 C13.81,376.68 4.74,365.86 1.43,354.00 C0.40,350.29 0.16,363.77 0.09,430.75 L 0.00 512.00 L 0.00 0.00 L 0.11 170.75 C0.17,267.69 0.59,339.63 1.07,337.18 C2.29,330.96 6.23,322.87 10.21,318.38 L 13.65 314.50 L 14.82 299.50 C18.26,255.36 35.66,218.58 67.51,188.18 C91.72,165.06 123.68,149.07 157.00,143.42 C164.50,142.15 173.19,141.62 187.38,141.57 L 207.27 141.50 L 210.71 137.00 C221.85,122.42 237.92,107.56 253.50,97.44 C275.44,83.18 304.31,72.92 327.10,71.28 C334.25,70.77 334.80,70.87 336.35,73.09 C338.57,76.26 338.43,80.57 336.03,82.97 C333.83,85.17 333.73,85.19 319.23,87.43 C288.80,92.14 259.65,107.29 236.43,130.46 C214.93,151.93 201.26,176.67 194.45,206.50 C190.52,223.70 189.87,248.19 192.89,265.87 C198.46,298.52 213.26,327.22 236.41,350.23 C253.97,367.69 275.70,381.09 298.44,388.47 C307.08,391.28 311.96,392.42 328.00,395.39 ZM 347.28 364.70 C346.09,367.81 367.79,365.46 383.50,360.78 C398.47,356.33 417.03,345.98 428.28,335.82 L 433.06 331.50 L 431.92 325.25 C428.83,308.23 438.00,291.04 454.52,282.92 C461.10,279.68 462.01,279.50 471.98,279.52 C481.41,279.53 483.15,279.83 488.71,282.39 C498.51,286.88 507.26,296.92 510.60,307.50 C511.65,310.80 511.86,299.06 511.83,240.00 C511.81,200.68 511.45,169.95 511.03,171.72 C508.50,182.39 498.87,193.83 488.25,198.80 C483.15,201.20 481.32,201.50 471.98,201.50 C462.17,201.50 461.02,201.28 454.97,198.31 C438.65,190.27 429.01,172.28 431.95,155.35 L 433.06 148.99 L 429.39 145.75 C412.05,130.43 389.53,119.94 366.69,116.55 C332.76,111.51 299.93,119.24 272.95,138.61 C265.54,143.94 254.19,154.56 255.06,155.36 C255.30,155.58 258.70,157.37 262.61,159.32 C278.38,167.22 298.78,182.76 310.81,196.05 C324.97,211.69 337.97,232.94 344.94,251.83 C348.65,261.89 353.00,278.71 353.00,282.98 C353.00,286.63 349.17,291.00 345.97,291.00 C342.42,291.00 338.38,286.03 337.58,280.67 C336.52,273.61 330.35,254.78 326.07,245.56 C311.67,214.54 285.77,187.95 254.82,172.41 C249.99,169.98 245.47,168.00 244.77,168.00 C243.69,168.00 236.00,178.97 236.00,180.49 C236.00,180.77 236.57,181.00 237.28,181.00 C239.53,181.00 257.71,190.69 265.73,196.16 C277.37,204.10 293.48,220.60 301.40,232.70 C317.79,257.72 325.23,282.05 325.33,311.00 C325.39,327.93 323.81,339.26 319.53,352.67 C318.15,356.97 317.02,361.03 317.01,361.67 C317.00,362.84 325.05,365.00 329.41,365.00 C331.48,365.00 332.01,364.00 334.35,355.75 C336.86,346.89 339.31,333.11 340.57,320.67 C341.28,313.73 343.47,311.00 348.35,311.00 C353.83,311.00 355.55,313.83 355.23,322.35 C354.80,333.81 350.65,355.94 347.28,364.70 ZM 292.21 353.55 C297.26,356.00 301.71,357.67 302.10,357.26 C303.27,356.02 306.81,343.62 308.67,334.25 C311.00,322.54 310.94,299.57 308.55,288.53 C299.52,246.79 274.94,214.96 238.56,197.91 C233.76,195.67 229.69,193.98 229.51,194.16 C229.33,194.35 228.27,197.21 227.15,200.53 C218.72,225.63 218.89,256.72 227.62,281.23 C234.27,299.91 243.46,314.51 257.46,328.60 C268.56,339.77 278.35,346.80 292.21,353.55 ZM 29.54 305.06 C29.73,305.37 32.50,305.32 35.69,304.95 C38.89,304.58 41.89,304.50 42.36,304.77 C43.82,305.60 44.97,302.71 44.98,298.16 C45.02,286.74 51.69,263.54 59.25,248.51 C82.22,202.81 126.67,174.30 179.57,171.33 L 190.63 170.71 L 193.84 164.22 C195.61,160.64 196.77,157.44 196.43,157.11 C195.16,155.86 168.17,156.83 158.50,158.46 C145.58,160.65 127.41,166.69 114.84,172.98 C74.08,193.39 44.05,231.13 33.53,275.18 C31.27,284.63 28.72,303.72 29.54,305.06 ZM 464.33 343.20 C470.41,345.36 477.30,344.91 483.02,341.99 C487.97,339.46 494.36,332.08 495.82,327.19 C500.88,310.31 489.09,294.00 471.81,294.00 C452.69,294.00 440.46,314.24 449.52,330.87 C452.94,337.14 457.15,340.65 464.33,343.20 ZM 30.50 367.65 C40.98,372.54 53.66,369.40 60.69,360.18 C70.28,347.61 66.45,329.32 52.78,322.39 C48.28,320.11 46.72,319.85 39.43,320.15 C32.15,320.46 30.66,320.86 26.86,323.53 C21.08,327.60 17.23,333.35 15.85,340.00 C13.56,351.02 19.70,362.61 30.50,367.65 ZM 460.93 184.53 C470.18,189.35 483.81,186.74 490.45,178.89 C495.43,173.00 497.26,167.58 496.83,160.00 C496.34,151.34 492.60,144.88 485.55,140.53 C481.44,137.99 479.42,137.44 472.99,137.15 C466.34,136.85 464.65,137.14 460.28,139.36 C454.02,142.53 449.06,148.65 447.32,155.34 C445.65,161.78 445.67,162.51 447.56,168.88 C449.42,175.17 454.61,181.23 460.93,184.53 ZM 145.71 480.60 C154.64,483.04 163.90,480.15 170.62,472.82 C175.82,467.15 177.32,462.62 176.83,454.04 C176.34,445.34 172.61,438.89 165.55,434.53 C161.08,431.77 159.89,431.50 152.07,431.52 C142.42,431.54 139.73,432.58 133.78,438.54 C128.56,443.78 126.68,449.28 127.16,457.90 C127.49,463.69 128.08,465.64 130.53,469.11 C134.67,474.96 140.09,479.06 145.71,480.60 ZM 191.62 467.06 C191.76,467.36 195.62,467.26 200.19,466.83 C239.33,463.13 275.07,444.68 302.14,414.18 C302.38,413.90 302.62,413.64 302.85,413.38 C305.61,410.28 306.99,408.73 306.68,407.66 C306.35,406.50 304.02,405.90 299.27,404.52 L 293.05 402.70 L 282.70 412.67 C259.22,435.29 230.63,448.80 200.00,451.77 L 192.50 452.50 L 191.93 459.50 C191.62,463.35 191.48,466.75 191.62,467.06 ZM 279.85 52.25 C275.28,56.11 268.00,52.85 268.00,46.94 C268.00,43.80 271.41,26.77 273.14,21.24 C274.30,17.55 276.55,16.00 280.78,16.00 C283.69,16.00 286.16,17.97 287.30,21.21 C287.64,22.16 286.56,29.13 284.92,36.71 C282.69,46.99 281.40,50.95 279.85,52.25 ZM 214.37 93.93 C213.56,94.56 212.97,95.03 212.30,95.34 C210.32,96.24 207.64,95.63 196.65,93.12 L 196.17 93.01 C187.41,91.01 183.14,89.54 181.42,87.92 C176.60,83.40 179.60,75.99 186.25,76.01 C192.44,76.04 214.26,81.64 215.67,83.57 C217.95,86.68 217.32,91.60 214.37,93.93 ZM 239.25 59.23 C236.80,61.38 233.89,62.01 231.26,60.96 C229.04,60.08 216.87,42.35 214.46,36.50 C212.48,31.67 214.69,27.95 220.34,26.60 C224.00,25.72 227.29,29.11 235.25,41.91 C241.41,51.82 242.47,56.40 239.25,59.23 Z" fill="rgb(1,1,1)"/>
<path d="M 10.86 317.65 C13.62,314.48 13.73,313.57 14.82,299.50 L 13.65 314.50 ZM 2.76 331.41 C4.66,326.12 6.61,322.64 9.65,319.03 C7.02,322.22 4.47,326.88 2.76,331.41 ZM 0.86 333.42 C1.09,335.87 1.40,335.43 1.81,334.23 C1.51,335.24 1.26,336.23 1.07,337.18 C1.00,337.54 0.93,336.24 0.86,333.42 Z" fill="rgb(96,96,96)"/>
<path d="M 0.17 392.40 C0.31,358.45 0.64,351.15 1.43,354.00 C1.65,354.78 1.89,355.55 2.15,356.31 C1.82,355.56 1.50,354.79 1.17,354.00 C0.65,352.73 0.33,364.52 0.17,392.40 ZM 10.52 370.77 C14.51,375.44 19.41,379.30 24.75,381.80 C24.78,381.82 24.80,381.83 24.83,381.84 C24.80,381.83 24.76,381.81 24.72,381.79 C18.98,379.10 14.44,375.66 10.52,370.77 ZM 4.03 328.15 C3.60,329.16 3.18,330.24 2.76,331.41 C2.49,332.13 2.24,332.85 2.02,333.55 C2.09,332.50 2.89,330.46 4.03,328.15 ZM 12.63 315.18 C12.20,316.05 11.63,316.76 10.86,317.65 L 10.52 318.03 C11.47,316.96 12.14,316.17 12.63,315.18 Z" fill="rgb(154,154,154)"/>
<path d="M 0.07 431.75 C0.12,375.47 0.44,352.25 1.17,354.00 C7.38,369.00 13.93,376.73 24.72,381.79 C29.80,384.17 31.71,384.50 40.50,384.50 C54.12,384.49 59.90,382.17 69.03,373.03 C78.11,363.96 80.42,358.19 80.46,344.50 C80.50,335.62 80.19,333.84 77.72,328.57 C73.51,319.58 68.26,313.87 59.17,308.38 C58.37,307.89 61.41,287.63 63.55,279.21 C68.62,259.21 80.51,238.60 95.84,223.20 C117.11,201.85 144.96,189.05 175.75,186.48 C180.29,186.10 184.00,185.95 184.00,186.15 C184.00,186.34 182.69,191.68 181.09,198.00 C176.76,215.18 175.65,226.49 176.30,246.82 C176.69,259.19 177.48,267.35 178.94,274.00 C187.00,310.89 207.20,345.74 233.79,368.65 C242.77,376.39 261.94,389.22 270.82,393.43 C274.22,395.05 277.00,396.69 277.00,397.09 C277.00,398.63 262.22,411.39 254.45,416.56 C239.62,426.43 221.03,433.73 205.08,435.95 C191.23,437.88 189.06,437.98 188.03,436.73 C187.48,436.05 185.54,433.48 183.71,431.00 C176.14,420.72 164.33,415.50 150.15,416.18 C134.47,416.93 122.23,424.96 115.67,438.80 C112.73,445.01 112.50,446.28 112.50,456.02 C112.50,465.87 112.71,466.97 115.73,473.11 C121.55,484.93 133.14,493.61 146.34,496.05 C156.53,497.94 168.97,494.25 178.50,486.52 C182.29,483.44 183.08,483.23 193.50,482.54 C224.15,480.50 253.34,471.11 276.80,455.72 C294.28,444.27 311.26,428.50 321.73,414.00 L 324.26 410.50 L 346.88 410.48 C366.51,410.46 370.84,410.16 379.66,408.23 C411.58,401.23 437.31,388.19 461.00,367.01 C468.16,360.61 468.79,360.27 474.92,359.58 C491.78,357.69 504.70,347.43 510.18,331.59 C511.88,326.66 511.94,329.46 511.97,419.25 L 512.00 512.00 L 256.00 512.00 L 0.00 512.00 L 0.07 431.75 ZM 145.71 480.60 C140.09,479.06 134.67,474.96 130.53,469.11 C128.08,465.64 127.49,463.69 127.16,457.90 C126.68,449.28 128.56,443.78 133.78,438.54 C139.73,432.58 142.42,431.54 152.07,431.52 C159.89,431.50 161.08,431.77 165.55,434.53 C172.61,438.89 176.34,445.34 176.83,454.04 C177.32,462.62 175.82,467.15 170.62,472.82 C163.90,480.15 154.64,483.04 145.71,480.60 ZM 191.62 467.06 C191.48,466.75 191.62,463.35 191.93,459.50 L 192.50 452.50 L 200.00 451.77 C230.63,448.80 259.22,435.29 282.70,412.67 L 293.05 402.70 L 299.27 404.52 C308.73,407.28 308.61,406.88 302.14,414.18 C275.07,444.68 239.33,463.13 200.19,466.83 C195.62,467.26 191.76,467.36 191.62,467.06 ZM 328.00 395.39 C311.96,392.42 307.08,391.28 298.44,388.47 C275.70,381.09 253.97,367.69 236.41,350.23 C213.26,327.22 198.46,298.52 192.89,265.87 C189.87,248.19 190.52,223.70 194.45,206.50 C201.26,176.67 214.93,151.93 236.43,130.46 C259.65,107.29 288.80,92.14 319.23,87.43 C333.73,85.19 333.83,85.17 336.03,82.97 C338.43,80.57 338.57,76.26 336.35,73.09 C334.80,70.87 334.25,70.77 327.10,71.28 C304.31,72.92 275.44,83.18 253.50,97.44 C237.92,107.56 221.85,122.42 210.71,137.00 L 207.27 141.50 L 187.38 141.57 C173.19,141.62 164.50,142.15 157.00,143.42 C123.68,149.07 91.72,165.06 67.51,188.18 C35.66,218.58 18.26,255.36 14.82,299.50 C13.65,314.49 13.65,314.50 10.23,318.36 C6.94,322.07 2.03,331.22 2.01,333.69 C2.00,334.35 1.55,335.16 1.00,335.50 C0.33,335.91 0.00,279.84 0.00,168.06 L 0.00 0.00 L 256.00 0.00 L 512.00 0.00 L 511.97 77.25 C511.94,151.82 511.87,154.33 510.20,149.49 C504.61,133.33 492.28,123.30 476.71,122.24 L 469.50 121.75 L 463.00 115.58 C440.22,93.96 411.19,79.16 379.58,73.06 C365.73,70.39 363.47,70.43 360.45,73.45 C357.26,76.65 357.35,79.50 360.75,82.90 C362.96,85.11 365.07,85.89 371.50,86.89 C396.61,90.78 420.12,100.81 440.72,116.44 C446.57,120.87 451.48,124.95 451.63,125.50 C451.87,126.34 448.65,129.17 441.48,134.42 C440.61,135.06 438.58,133.96 434.86,130.83 C418.83,117.34 399.30,108.07 375.88,102.82 C361.94,99.70 333.41,99.49 319.50,102.40 C260.60,114.72 217.05,160.00 207.36,218.99 C206.20,226.08 205.93,232.82 206.30,245.50 C206.73,260.16 207.21,264.08 209.80,274.00 C216.90,301.20 229.47,322.70 249.44,341.78 C269.03,360.52 292.56,372.95 319.34,378.74 C331.06,381.27 363.24,381.24 374.50,378.69 C397.23,373.53 413.68,365.97 431.66,352.41 C436.33,348.88 440.40,346.00 440.70,346.00 C440.99,346.00 442.66,347.24 444.39,348.75 C446.13,350.26 448.64,352.22 449.98,353.10 L 452.42 354.69 L 448.58 358.10 C434.98,370.16 412.87,382.89 395.69,388.52 C379.65,393.79 370.79,395.14 350.00,395.51 C339.27,395.70 329.38,395.64 328.00,395.39 ZM 214.37 93.93 C217.32,91.60 217.95,86.68 215.67,83.57 C214.26,81.64 192.44,76.04 186.25,76.01 C179.60,75.99 176.60,83.40 181.42,87.92 C183.14,89.54 187.41,91.01 196.17,93.01 C211.34,96.47 211.14,96.46 214.37,93.93 ZM 239.25 59.23 C242.47,56.40 241.41,51.82 235.25,41.91 C227.29,29.11 224.00,25.72 220.34,26.60 C214.69,27.95 212.48,31.67 214.46,36.50 C216.87,42.35 229.04,60.08 231.26,60.96 C233.89,62.01 236.80,61.38 239.25,59.23 ZM 279.85 52.25 C281.40,50.95 282.69,46.99 284.92,36.71 C286.56,29.13 287.64,22.16 287.30,21.21 C286.16,17.97 283.69,16.00 280.78,16.00 C276.55,16.00 274.30,17.55 273.14,21.24 C271.41,26.77 268.00,43.80 268.00,46.94 C268.00,52.85 275.28,56.11 279.85,52.25 ZM 30.50 367.65 C19.70,362.61 13.56,351.02 15.85,340.00 C17.23,333.35 21.08,327.60 26.86,323.53 C30.66,320.86 32.15,320.46 39.43,320.15 C46.72,319.85 48.28,320.11 52.78,322.39 C66.45,329.32 70.28,347.61 60.69,360.18 C53.66,369.40 40.98,372.54 30.50,367.65 ZM 347.28 364.70 C350.65,355.94 354.80,333.81 355.23,322.35 C355.55,313.83 353.83,311.00 348.35,311.00 C343.47,311.00 341.28,313.73 340.57,320.67 C339.31,333.11 336.86,346.89 334.35,355.75 C332.01,364.00 331.48,365.00 329.41,365.00 C325.05,365.00 317.00,362.84 317.01,361.67 C317.02,361.03 318.15,356.97 319.53,352.67 C323.81,339.26 325.39,327.93 325.33,311.00 C325.23,282.05 317.79,257.72 301.40,232.70 C293.48,220.60 277.37,204.10 265.73,196.16 C257.71,190.69 239.53,181.00 237.28,181.00 C236.57,181.00 236.00,180.77 236.00,180.49 C236.00,178.97 243.69,168.00 244.77,168.00 C245.47,168.00 249.99,169.98 254.82,172.41 C285.77,187.95 311.67,214.54 326.07,245.56 C330.35,254.78 336.52,273.61 337.58,280.67 C338.38,286.03 342.42,291.00 345.97,291.00 C349.17,291.00 353.00,286.63 353.00,282.98 C353.00,278.71 348.65,261.89 344.94,251.83 C337.97,232.94 324.97,211.69 310.81,196.05 C298.78,182.76 278.38,167.22 262.61,159.32 C258.70,157.37 255.30,155.58 255.06,155.36 C254.19,154.56 265.54,143.94 272.95,138.61 C299.93,119.24 332.76,111.51 366.69,116.55 C389.53,119.94 412.05,130.43 429.39,145.75 L 433.06 148.99 L 431.95 155.35 C429.01,172.28 438.65,190.27 454.97,198.31 C461.02,201.28 462.17,201.50 471.98,201.50 C481.32,201.50 483.15,201.20 488.25,198.80 C498.87,193.83 508.50,182.39 511.03,171.72 C511.45,169.95 511.81,200.68 511.83,240.00 C511.86,299.06 511.65,310.80 510.60,307.50 C507.26,296.92 498.51,286.88 488.71,282.39 C483.15,279.83 481.41,279.53 471.98,279.52 C462.01,279.50 461.10,279.68 454.52,282.92 C438.00,291.04 428.83,308.23 431.92,325.25 L 433.06 331.50 L 428.28 335.82 C417.03,345.98 398.47,356.33 383.50,360.78 C367.79,365.46 346.09,367.81 347.28,364.70 ZM 292.21 353.55 C278.35,346.80 268.56,339.77 257.46,328.60 C243.46,314.51 234.27,299.91 227.62,281.23 C218.89,256.72 218.72,225.63 227.15,200.53 C228.27,197.21 229.33,194.35 229.51,194.16 C229.69,193.98 233.76,195.67 238.56,197.91 C274.94,214.96 299.52,246.79 308.55,288.53 C310.94,299.57 311.00,322.54 308.67,334.25 C306.81,343.62 303.27,356.02 302.10,357.26 C301.71,357.67 297.26,356.00 292.21,353.55 ZM 464.33 343.20 C457.15,340.65 452.94,337.14 449.52,330.87 C440.46,314.24 452.69,294.00 471.81,294.00 C489.09,294.00 500.88,310.31 495.82,327.19 C494.36,332.08 487.97,339.46 483.02,341.99 C477.30,344.91 470.41,345.36 464.33,343.20 ZM 29.54 305.06 C28.72,303.72 31.27,284.63 33.53,275.18 C44.05,231.13 74.08,193.39 114.84,172.98 C127.41,166.69 145.58,160.65 158.50,158.46 C168.17,156.83 195.16,155.86 196.43,157.11 C196.77,157.44 195.61,160.64 193.84,164.22 L 190.63 170.71 L 179.57 171.33 C126.67,174.30 82.22,202.81 59.25,248.51 C51.69,263.54 45.02,286.74 44.98,298.16 C44.97,302.71 43.82,305.60 42.36,304.77 C41.89,304.50 38.89,304.58 35.69,304.95 C32.50,305.32 29.73,305.37 29.54,305.06 ZM 460.93 184.53 C454.61,181.23 449.42,175.17 447.56,168.88 C445.67,162.51 445.65,161.78 447.32,155.34 C449.06,148.65 454.02,142.53 460.28,139.36 C464.65,137.14 466.34,136.85 472.99,137.15 C479.42,137.44 481.44,137.99 485.55,140.53 C492.60,144.88 496.34,151.34 496.83,160.00 C497.26,167.58 495.43,173.00 490.45,178.89 C483.81,186.74 470.18,189.35 460.93,184.53 Z" fill="rgb(254,254,254)"/>
</g>
</svg>